# 3ds Max Wavefront OBJ Exporter v0.97b - (c)2007 guruware
# File Created: 01.04.2019 23:17:19

#
# object Barrel_room
#

v  -16.1040 2.5400 -7.8541
v  -7.4550 2.5400 -7.6537
v  -7.4550 -5.5074 -7.6537
v  -13.7938 -3.3580 -7.8006
v  -7.9667 -4.0662 11.9345
v  -7.9667 2.5400 11.9345
v  -15.0667 2.5400 11.7700
v  -13.1703 -2.3017 11.8140
v  -7.5079 -6.6271 -6.9092
v  -7.5701 -7.3663 -5.0903
v  -15.3756 -4.7234 -5.3031
v  -14.6797 -4.1333 -7.0920
v  -15.5162 -4.6282 4.5988
v  -15.3363 -4.6282 -2.9171
v  -7.6323 -7.2406 -2.7386
v  -7.8121 -7.2406 4.7773
v  -7.8743 -7.3742 7.4535
v  -7.9389 -6.6213 10.2363
v  -15.1075 -4.1297 10.0861
v  -15.6875 -4.7291 7.3032
v  2.3444 2.5400 -6.6809
v  3.0767 2.5400 -4.8437
v  0.2370 -4.7234 -4.9413
v  -0.3354 -4.1333 -6.7597
v  -0.1081 -4.6282 4.9558
v  0.0718 -4.6282 -2.5601
v  2.8794 2.5400 -2.4950
v  2.6996 2.5400 5.0208
v  2.7810 2.5400 7.7004
v  1.9073 2.5400 10.4644
v  -0.7710 -4.1297 10.4183
v  -0.0625 -4.7291 7.6652
v  -17.3603 2.5400 -7.1375
v  -18.2169 2.5400 -5.3370
v  -15.3756 9.8034 -5.3031
v  -14.6797 9.2134 -7.0920
v  -18.3238 2.5400 4.5337
v  -15.5162 9.7082 4.5988
v  -15.3363 9.7082 -2.9171
v  -18.1440 2.5400 -2.9821
v  -18.5295 2.5400 7.2066
v  -17.7851 2.5400 10.0082
v  -15.1075 9.2097 10.0861
v  -15.6875 9.8091 7.3032
v  -2.7631 -2.3017 12.0551
v  -0.8667 2.5400 12.0990
v  -7.5701 12.4463 -5.0903
v  -7.5079 11.7071 -6.9092
v  -7.9389 11.7014 10.2363
v  -7.8743 12.4542 7.4535
v  -13.7938 8.4380 -7.8006
v  -7.4550 10.5875 -7.6537
v  -7.9667 9.1462 11.9345
v  -13.1703 7.3817 11.8140
v  -0.3354 9.2134 -6.7597
v  0.2370 9.8034 -4.9413
v  -0.0625 9.8091 7.6652
v  -0.7710 9.2097 10.4183
v  -17.4911 -1.9112 1.1641
v  -17.9767 -0.6716 1.1528
v  -17.9541 -0.6716 0.1809
v  -17.4685 -1.9112 0.1921
v  -1.1161 -3.3580 -7.5069
v  1.1940 2.5400 -7.4533
v  -2.7631 7.3817 12.0551
v  -14.3309 -3.3580 12.8783
v  -7.9920 -5.5074 13.0252
v  -7.9920 -4.0662 13.0252
v  -13.1956 -2.3017 12.9047
v  -1.6531 -3.3580 13.1721
v  -2.7884 -2.3017 13.1458
v  0.6570 2.5400 13.2256
v  -0.8920 2.5400 13.1897
v  -1.6531 8.4380 13.1721
v  -2.7884 7.3817 13.1458
v  -7.9920 10.5875 13.0252
v  -7.9920 9.1462 13.0252
v  -14.3309 8.4380 12.8783
v  -13.1956 7.3817 12.9047
v  -16.6410 2.5400 12.8248
v  -15.0920 2.5400 12.8607
v  -14.2171 -3.6981 -6.8586
v  -16.6957 2.5400 -6.9237
v  -7.5126 -6.0044 -6.7109
v  -0.8083 -3.6981 -6.5479
v  1.6706 2.5400 -6.4981
v  -14.2171 8.7781 -6.8586
v  -7.5126 11.0845 -6.7109
v  -7.5747 -6.7436 -4.8920
v  -0.2360 -4.2881 -4.7296
v  -14.9130 -4.2881 -5.0697
v  -17.5522 2.5400 -5.1232
v  -14.9130 9.3681 -5.0697
v  2.4029 2.5400 -4.6609
v  -14.6335 -3.6934 9.8792
v  -7.9344 -5.9976 10.0418
v  -17.1102 2.5400 9.8292
v  -14.6335 8.7734 9.8792
v  -7.9344 11.0776 10.0418
v  -1.2349 8.7734 10.1896
v  1.2414 2.5400 10.2544
v  -1.2349 -3.6934 10.1896
v  -0.5263 -4.2928 7.4366
v  -7.8698 -6.7504 7.2590
v  2.1152 2.5400 7.4904
v  -17.8547 2.5400 7.0277
v  -15.2135 9.3728 7.0963
v  -15.2135 -4.2928 7.0963
v  -0.8083 8.7781 -6.5479
v  -7.5747 11.8236 -4.8920
v  -0.2360 9.3681 -4.7296
v  -0.5263 9.3728 7.4366
v  -7.8698 11.8304 7.2590
v  -16.7429 -2.1630 -0.2895
v  -17.5700 -0.0513 -0.3087
v  -16.7886 -2.1630 1.6788
v  -17.6157 -0.0513 1.6596
# 117 vertices

vn -0.5463 -0.0000 -0.8374
vn 0.0234 0.0000 -0.9997
vn 0.0240 -0.5782 -0.8155
vn -0.3967 -0.4221 -0.8149
vn -0.0149 0.7704 0.6373
vn -0.0234 -0.0000 0.9997
vn 0.7553 0.0000 0.6551
vn 0.5383 0.5530 0.6358
vn 0.0216 -0.5304 -0.8474
vn -0.0101 -0.9285 0.3711
vn -0.6777 -0.6687 0.3061
vn -0.3396 -0.3620 -0.8680
vn -0.6938 -0.7135 0.0981
vn -0.6860 -0.7126 -0.1472
vn 0.0025 -0.9930 -0.1180
vn -0.0025 -0.9948 0.1020
vn 0.0100 -0.9039 -0.4276
vn -0.0189 -0.5873 0.8091
vn -0.4275 -0.4085 0.8066
vn -0.6427 -0.6519 -0.4021
vn 0.5541 -0.0000 -0.8326
vn 0.9180 0.0000 0.3964
vn 0.6597 -0.6691 0.3421
vn 0.3859 -0.3638 -0.8479
vn 0.7012 -0.7037 0.1145
vn 0.7050 -0.7028 -0.0959
vn 0.9363 -0.3404 -0.0877
vn 0.9327 -0.3408 0.1177
vn 0.9137 0.0000 -0.4068
vn 0.5682 0.0000 0.8226
vn 0.3893 -0.4085 0.8254
vn 0.6608 -0.6519 -0.3721
vn -0.5063 -0.0000 -0.8621
vn -0.9385 -0.0000 0.3459
vn -0.6777 0.6687 0.3061
vn -0.3396 0.3620 -0.8680
vn -0.9955 0.0159 0.0948
vn -0.9377 0.3411 0.0671
vn -0.9317 0.3405 -0.1264
vn -0.9871 0.0169 -0.1592
vn -0.8937 0.0000 -0.4484
vn -0.6061 -0.0000 0.7956
vn -0.4275 0.4085 0.8066
vn -0.6427 0.6519 -0.4021
vn -0.5675 0.5530 0.6103
vn -0.7851 0.0000 0.6196
vn -0.3300 0.8811 0.3390
vn -0.1717 0.5169 -0.8385
vn -0.2311 0.5738 0.7857
vn -0.3043 0.8582 -0.4132
vn -0.3967 0.4221 -0.8149
vn -0.1842 0.5572 -0.8096
vn -0.0149 -0.7704 0.6374
vn 0.5383 -0.5530 0.6358
vn 0.5403 0.1927 -0.8193
vn 0.8878 0.3269 0.3236
vn 0.8858 0.3208 -0.3357
vn 0.5576 0.2135 0.8020
vn -0.7265 -0.6122 0.3124
vn -0.9518 0.0061 0.3072
vn -0.9364 0.0061 -0.3507
vn -0.7111 -0.6122 -0.3455
vn 0.4531 -0.4280 -0.7821
vn 0.5959 -0.2105 -0.7752
vn -0.5675 -0.5530 0.6103
vn -0.5296 -0.5145 0.6746
vn -0.0158 -0.7126 0.7014
vn -0.0185 0.6094 0.7926
vn 0.3901 0.4092 0.8247
vn 0.4997 -0.5150 0.6963
vn -0.4281 0.4091 0.8059
vn 0.6974 -0.0000 0.7164
vn -0.6278 0.0000 0.7786
vn 0.4997 0.5150 0.6963
vn -0.4281 -0.4092 0.8059
vn -0.0158 0.7126 0.7014
vn -0.0185 -0.6094 0.7926
vn -0.5296 0.5145 0.6746
vn 0.3901 -0.4092 0.8247
vn -0.7275 0.0000 0.6864
vn 0.5908 0.0000 0.8066
vn -0.1114 -0.1313 -0.9850
vn -0.2084 0.0000 -0.9779
vn 0.0198 -0.2426 -0.9699
vn 0.1653 -0.1459 -0.9754
vn 0.0474 -0.1022 -0.9936
vn -0.1114 0.1313 -0.9850
vn -0.0696 0.2462 -0.9666
vn -0.0129 -0.8192 0.5734
vn 0.5604 -0.5736 0.5972
vn -0.5881 -0.5752 0.5688
vn -0.8333 0.0000 0.5531
vn -0.5692 0.3276 0.7542
vn 0.5992 -0.1298 0.7898
vn -0.2560 -0.2334 0.9381
vn -0.0220 -0.3866 0.9219
vn -0.4065 0.0000 0.9137
vn -0.2560 0.2334 0.9381
vn 0.0423 0.6979 0.7149
vn 0.3895 0.5360 0.7488
vn 0.3666 0.0000 0.9302
vn 0.2129 -0.2356 0.9481
vn 0.5793 -0.5654 -0.5873
vn 0.0138 -0.8069 -0.5905
vn 0.6262 -0.1288 -0.7692
vn -0.7929 0.0000 -0.6090
vn -0.5242 0.3208 -0.7886
vn -0.5513 -0.5654 -0.6133
vn -0.3048 -0.1198 -0.9447
vn -0.1250 0.2829 0.9510
vn 0.3057 0.1188 0.9445
vn 0.3427 0.1163 -0.9323
vn -0.0784 0.2775 -0.9574
vn -0.8503 -0.4894 -0.1938
vn -0.9652 -0.1730 -0.1960
vn -0.8591 -0.4899 0.1489
vn -0.9741 -0.1732 0.1459
# 117 vertex normals

vt 0.7050 0.2487 0.0000
vt 0.6608 0.3699 0.0000
vt 0.5397 0.3258 0.0000
vt 0.6044 0.2488 0.0000
vt 0.4360 0.2769 0.0000
vt 0.3998 0.3764 0.0000
vt 0.3003 0.3401 0.0000
vt 0.3534 0.2769 0.0000
vt 0.0467 0.2976 0.0000
vt 0.0047 0.2976 0.0000
vt 0.0047 0.1778 0.0000
vt 0.0467 0.1778 0.0000
vt 0.5444 0.9477 0.0000
vt 0.5444 0.8312 0.0000
vt 0.6660 0.8320 0.0000
vt 0.6660 0.9469 0.0000
vt 0.2395 0.0000 0.0000
vt 0.2395 0.0431 0.0000
vt 0.1213 0.0431 0.0000
vt 0.1213 0.0000 0.0000
vt 0.5605 0.7829 0.0000
vt 0.5605 0.7414 0.0000
vt 0.6798 0.7414 0.0000
vt 0.6798 0.7829 0.0000
vt 0.9477 0.5577 0.0000
vt 0.8312 0.5577 0.0000
vt 0.8320 0.4361 0.0000
vt 0.9469 0.4361 0.0000
vt 0.5878 0.7290 0.0000
vt 0.5878 0.6851 0.0000
vt 0.7063 0.6851 0.0000
vt 0.7063 0.7290 0.0000
vt 0.7972 0.8298 0.0000
vt 0.7931 0.7884 0.0000
vt 0.9169 0.7887 0.0000
vt 0.9113 0.8302 0.0000
vt 0.1599 0.5778 0.0000
vt 0.1606 0.7002 0.0000
vt 0.0434 0.7002 0.0000
vt 0.0441 0.5778 0.0000
vt 0.7978 0.9585 0.0000
vt 0.8019 0.9155 0.0000
vt 0.9160 0.9151 0.0000
vt 0.9217 0.9582 0.0000
vt 0.4993 0.3300 0.0000
vt 0.4993 0.4126 0.0000
vt 0.0467 0.4125 0.0000
vt 0.0047 0.4125 0.0000
vt 0.7876 0.8312 0.0000
vt 0.7876 0.9477 0.0000
vt 0.3627 0.0000 0.0000
vt 0.3627 0.0431 0.0000
vt 0.9892 0.8069 0.0000
vt 0.9479 0.8069 0.0000
vt 0.9479 0.6849 0.0000
vt 0.9892 0.6849 0.0000
vt 0.4693 0.6727 0.0000
vt 0.4693 0.6288 0.0000
vt 0.5878 0.6288 0.0000
vt 0.5878 0.6727 0.0000
vt 0.7820 0.3134 0.0000
vt 0.7820 0.4140 0.0000
vt 0.3636 0.4758 0.0000
vt 0.3004 0.4227 0.0000
vt 0.4411 0.7829 0.0000
vt 0.4411 0.7414 0.0000
vt 0.4693 0.7290 0.0000
vt 0.4693 0.6851 0.0000
vt 0.0047 0.0563 0.0000
vt 0.0467 0.0563 0.0000
vt 0.1083 0.5055 0.0000
vt 0.1085 0.5262 0.0000
vt 0.0955 0.5262 0.0000
vt 0.0956 0.5055 0.0000
vt 0.0047 0.0431 0.0000
vt 0.0047 0.0000 0.0000
vt 0.5397 0.4264 0.0000
vt 0.6167 0.4911 0.0000
vt 0.4462 0.4758 0.0000
vt 0.2806 0.5397 0.0000
vt 0.3812 0.5397 0.0000
vt 0.3733 0.5614 0.0000
vt 0.2907 0.5614 0.0000
vt 0.4582 0.6044 0.0000
vt 0.4365 0.6145 0.0000
vt 0.4583 0.7050 0.0000
vt 0.4365 0.6971 0.0000
vt 0.3935 0.7820 0.0000
vt 0.3834 0.7603 0.0000
vt 0.2929 0.7820 0.0000
vt 0.3008 0.7603 0.0000
vt 0.2159 0.7173 0.0000
vt 0.2376 0.7072 0.0000
vt 0.2159 0.6167 0.0000
vt 0.2376 0.6246 0.0000
vt 0.6733 0.0047 0.0000
vt 0.6733 0.0873 0.0000
vt 0.6570 0.0873 0.0000
vt 0.6570 0.0047 0.0000
vt 0.6733 0.1699 0.0000
vt 0.6570 0.1699 0.0000
vt 0.1699 0.4433 0.0000
vt 0.0873 0.4433 0.0000
vt 0.0873 0.4270 0.0000
vt 0.1699 0.4270 0.0000
vt 0.0047 0.4433 0.0000
vt 0.0047 0.4270 0.0000
vt 0.9629 0.9877 0.0000
vt 0.8803 0.9877 0.0000
vt 0.8803 0.9714 0.0000
vt 0.9629 0.9714 0.0000
vt 0.7978 0.9877 0.0000
vt 0.7978 0.9714 0.0000
vt 0.5278 0.2769 0.0000
vt 0.5278 0.3595 0.0000
vt 0.5115 0.3595 0.0000
vt 0.5115 0.2769 0.0000
vt 0.5278 0.4420 0.0000
vt 0.5115 0.4420 0.0000
vt 0.5745 0.6151 0.0000
vt 0.4725 0.6150 0.0000
vt 0.4693 0.5772 0.0000
vt 0.5745 0.5773 0.0000
vt 0.8916 0.5678 0.0000
vt 0.8916 0.6703 0.0000
vt 0.8541 0.6703 0.0000
vt 0.8541 0.5678 0.0000
vt 0.8916 0.7757 0.0000
vt 0.8541 0.7757 0.0000
vt 0.9385 0.5678 0.0000
vt 0.9385 0.6703 0.0000
vt 0.9010 0.6703 0.0000
vt 0.9010 0.5678 0.0000
vt 0.6763 0.5398 0.0000
vt 0.5725 0.5398 0.0000
vt 0.5725 0.5021 0.0000
vt 0.6763 0.5021 0.0000
vt 0.6765 0.6150 0.0000
vt 0.6798 0.5772 0.0000
vt 0.6660 0.7946 0.0000
vt 0.7836 0.7931 0.0000
vt 0.5484 0.7931 0.0000
vt 0.0431 0.4552 0.0000
vt 0.0064 0.5778 0.0000
vt 0.0047 0.4595 0.0000
vt 0.0050 0.6961 0.0000
vt 0.7931 0.5536 0.0000
vt 0.7946 0.4361 0.0000
vt 0.7937 0.6730 0.0000
vt 0.7937 0.7744 0.0000
vt 0.7555 0.7744 0.0000
vt 0.7555 0.6730 0.0000
vt 0.2776 0.4038 0.0000
vt 0.1756 0.4039 0.0000
vt 0.1756 0.3661 0.0000
vt 0.2808 0.3660 0.0000
vt 0.0736 0.4038 0.0000
vt 0.0704 0.3660 0.0000
vt 0.4188 0.5257 0.0000
vt 0.3150 0.5257 0.0000
vt 0.3150 0.4880 0.0000
vt 0.4188 0.4880 0.0000
vt 0.2112 0.5257 0.0000
vt 0.2112 0.4880 0.0000
vt 0.8447 0.5678 0.0000
vt 0.8447 0.6703 0.0000
vt 0.8071 0.6703 0.0000
vt 0.8071 0.5678 0.0000
vt 0.8447 0.7757 0.0000
vt 0.8071 0.7757 0.0000
vt 0.7937 0.5678 0.0000
vt 0.7555 0.5678 0.0000
vt 0.7836 0.9858 0.0000
vt 0.6660 0.9843 0.0000
vt 0.9843 0.4361 0.0000
vt 0.9858 0.5537 0.0000
vt 0.1976 0.5778 0.0000
vt 0.1989 0.6962 0.0000
vt 0.1609 0.4552 0.0000
vt 0.1993 0.4595 0.0000
vt 0.5484 0.9858 0.0000
vt 0.4576 0.2671 0.0000
vt 0.5640 0.2662 0.0000
vt 0.5684 0.2756 0.0000
vt 0.4541 0.2769 0.0000
vt 0.6332 0.1853 0.0000
vt 0.6430 0.1889 0.0000
vt 0.6322 0.0789 0.0000
vt 0.6416 0.0745 0.0000
vt 0.5513 0.0098 0.0000
vt 0.5549 0.0000 0.0000
vt 0.4449 0.0107 0.0000
vt 0.4405 0.0013 0.0000
vt 0.3758 0.0916 0.0000
vt 0.3768 0.1980 0.0000
vt 0.3673 0.2024 0.0000
vt 0.3660 0.0880 0.0000
vt 0.9793 0.0891 0.0000
vt 0.8903 0.0145 0.0000
vt 0.8939 0.0047 0.0000
vt 0.9887 0.0847 0.0000
vt 0.7742 0.0144 0.0000
vt 0.7698 0.0050 0.0000
vt 0.6996 0.1034 0.0000
vt 0.6898 0.0998 0.0000
vt 0.6995 0.2195 0.0000
vt 0.6901 0.2239 0.0000
vt 0.7885 0.2941 0.0000
vt 0.7849 0.3038 0.0000
vt 0.9046 0.2941 0.0000
vt 0.9792 0.2052 0.0000
vt 0.9890 0.2087 0.0000
vt 0.9090 0.3036 0.0000
vt 0.1899 0.7231 0.0000
vt 0.0835 0.7240 0.0000
vt 0.0791 0.7146 0.0000
vt 0.1934 0.7133 0.0000
vt 0.0145 0.8048 0.0000
vt 0.0047 0.8013 0.0000
vt 0.0154 0.9111 0.0000
vt 0.0059 0.9155 0.0000
vt 0.0962 0.9802 0.0000
vt 0.0926 0.9900 0.0000
vt 0.2025 0.9793 0.0000
vt 0.2716 0.8984 0.0000
vt 0.2814 0.9020 0.0000
vt 0.2069 0.9887 0.0000
vt 0.2707 0.7921 0.0000
vt 0.2801 0.7877 0.0000
vt 0.3459 0.2569 0.0000
vt 0.3460 0.1407 0.0000
vt 0.3554 0.1363 0.0000
vt 0.3557 0.2605 0.0000
vt 0.2569 0.0661 0.0000
vt 0.2605 0.0563 0.0000
vt 0.1407 0.0660 0.0000
vt 0.1363 0.0566 0.0000
vt 0.0661 0.1550 0.0000
vt 0.0660 0.2712 0.0000
vt 0.0566 0.2756 0.0000
vt 0.0563 0.1515 0.0000
vt 0.1551 0.3459 0.0000
vt 0.1515 0.3556 0.0000
vt 0.2713 0.3460 0.0000
vt 0.2756 0.3554 0.0000
vt 0.0863 0.4990 0.0000
vt 0.0868 0.5354 0.0000
vt 0.1176 0.4990 0.0000
vt 0.1172 0.5354 0.0000
# 249 texture coords

o Barrel_room
g Barrel_room
s off
f 1/1/1 2/2/2 3/3/3 4/4/4 
f 5/5/5 6/6/6 7/7/7 8/8/8 
f 9/9/9 10/10/10 11/11/11 12/12/12 
f 13/13/13 14/14/14 15/15/15 16/16/16 
f 17/17/17 18/18/18 19/19/19 20/20/20 
f 21/21/21 22/22/22 23/23/23 24/24/24 
f 25/25/25 26/26/26 27/27/27 28/28/28 
f 29/29/29 30/30/30 31/31/31 32/32/32 
f 33/33/33 34/34/34 35/35/35 36/36/36 
f 37/37/37 38/38/38 39/39/39 40/40/40 
f 41/41/41 42/42/42 43/43/43 44/44/44 
f 45/45/45 46/46/46 6/6/6 5/5/5 
f 24/47/24 23/48/23 10/10/10 9/9/9 
f 16/16/16 15/15/15 26/49/26 25/50/25 
f 32/51/32 31/52/31 18/18/18 17/17/17 
f 36/53/36 35/54/35 47/55/47 48/56/48 
f 44/57/44 43/58/43 49/59/49 50/60/50 
f 51/61/51 52/62/52 2/2/2 1/1/1 
f 53/63/53 54/64/54 7/7/7 6/6/6 
f 55/65/55 56/66/56 22/22/22 21/21/21 
f 57/67/57 58/68/58 30/30/30 29/29/29 
f 12/12/12 11/11/11 34/69/34 33/70/33 
f 59/71/59 60/72/60 61/73/61 62/74/62 
f 20/20/20 19/19/19 42/75/42 41/76/41 
f 63/77/63 3/3/3 2/2/2 64/78/64 
f 65/79/65 53/63/53 6/6/6 46/46/46 
f 66/80/66 67/81/67 68/82/68 69/83/69 
f 67/81/67 70/84/70 71/85/71 68/82/68 
f 70/84/70 72/86/72 73/87/73 71/85/71 
f 72/86/72 74/88/74 75/89/75 73/87/73 
f 74/88/74 76/90/76 77/91/77 75/89/75 
f 76/90/76 78/92/78 79/93/79 77/91/77 
f 78/92/78 80/94/80 81/95/81 79/93/79 
f 80/94/80 66/80/66 69/83/69 81/95/81 
f 69/96/69 68/97/68 5/98/5 8/99/8 
f 68/97/68 71/100/71 45/101/45 5/98/5 
f 71/102/71 73/103/73 46/104/46 45/105/45 
f 73/103/73 75/106/75 65/107/65 46/104/46 
f 75/108/75 77/109/77 53/110/53 65/111/65 
f 77/109/77 79/112/79 54/113/54 53/110/53 
f 79/114/79 81/115/81 7/116/7 54/117/54 
f 81/115/81 69/118/69 8/119/8 7/116/7 
f 1/120/1 4/121/4 82/122/82 83/123/83 
f 4/124/4 3/125/3 84/126/84 82/127/82 
f 3/125/3 63/128/63 85/129/85 84/126/84 
f 63/130/63 64/131/64 86/132/86 85/133/85 
f 52/134/52 51/135/51 87/136/87 88/137/88 
f 51/138/51 1/120/1 83/123/83 87/139/87 
f 26/49/26 15/15/15 89/140/89 90/141/90 
f 15/15/15 14/14/14 91/142/91 89/140/89 
f 14/143/14 40/40/40 92/144/92 91/145/91 
f 40/40/40 39/39/39 93/146/93 92/144/92 
f 27/27/27 26/26/26 90/147/90 94/148/94 
f 67/149/67 66/150/66 95/151/95 96/152/96 
f 66/153/66 80/154/80 97/155/97 95/156/95 
f 80/154/80 78/157/78 98/158/98 97/155/97 
f 78/159/78 76/160/76 99/161/99 98/162/98 
f 76/160/76 74/163/74 100/164/100 99/161/99 
f 74/165/74 72/166/72 101/167/101 100/168/100 
f 72/166/72 70/169/70 102/170/102 101/167/101 
f 70/171/70 67/149/67 96/152/96 102/172/102 
f 16/16/16 25/50/25 103/173/103 104/174/104 
f 25/25/25 28/28/28 105/175/105 103/176/103 
f 38/38/38 37/37/37 106/177/106 107/178/107 
f 37/37/37 13/179/13 108/180/108 106/177/106 
f 13/13/13 16/16/16 104/174/104 108/181/108 
f 83/182/83 82/183/82 12/184/12 33/185/33 
f 82/183/82 84/186/84 9/187/9 12/184/12 
f 84/186/84 85/188/85 24/189/24 9/187/9 
f 85/188/85 86/190/86 21/191/21 24/189/24 
f 86/190/86 109/192/109 55/193/55 21/191/21 
f 88/194/88 87/195/87 36/196/36 48/197/48 
f 87/195/87 83/182/83 33/185/33 36/196/36 
f 90/198/90 89/199/89 10/200/10 23/201/23 
f 89/199/89 91/202/91 11/203/11 10/200/10 
f 91/202/91 92/204/92 34/205/34 11/203/11 
f 92/204/92 93/206/93 35/207/35 34/205/34 
f 93/206/93 110/208/110 47/209/47 35/207/35 
f 111/210/111 94/211/94 22/212/22 56/213/56 
f 94/211/94 90/198/90 23/201/23 22/212/22 
f 96/214/96 95/215/95 19/216/19 18/217/18 
f 95/215/95 97/218/97 42/219/42 19/216/19 
f 97/218/97 98/220/98 43/221/43 42/219/42 
f 98/220/98 99/222/99 49/223/49 43/221/43 
f 100/224/100 101/225/101 30/226/30 58/227/58 
f 101/225/101 102/228/102 31/229/31 30/226/30 
f 102/228/102 96/214/96 18/217/18 31/229/31 
f 104/230/104 103/231/103 32/232/32 17/233/17 
f 103/231/103 105/234/105 29/235/29 32/232/32 
f 105/234/105 112/236/112 57/237/57 29/235/29 
f 113/238/113 107/239/107 44/240/44 50/241/50 
f 107/239/107 106/242/106 41/243/41 44/240/44 
f 106/242/106 108/244/108 20/245/20 41/243/41 
f 108/244/108 104/230/104 17/233/17 20/245/20 
f 40/40/40 14/143/14 114/246/114 115/247/115 
f 14/143/14 13/179/13 116/248/116 114/246/114 
f 13/179/13 37/37/37 117/249/117 116/248/116 
f 37/37/37 40/40/40 115/247/115 117/249/117 
f 115/247/115 114/246/114 62/74/62 61/73/61 
f 114/246/114 116/248/116 59/71/59 62/74/62 
f 116/248/116 117/249/117 60/72/60 59/71/59 
f 117/249/117 115/247/115 61/73/61 60/72/60 
# 102 polygons

