# 3ds Max Wavefront OBJ Exporter v0.97b - (c)2007 guruware
# File Created: 24.03.2019 17:30:05

#
# object RoomD_Collider
#

v  10.5488 0.0642 -15.8318
v  15.0000 0.0642 -15.0000
v  15.0000 5.3822 -15.0000
v  10.5488 5.3822 -15.8318
v  -10.0000 0.0642 -12.8052
v  -5.0000 0.0642 -10.0000
v  -5.0000 5.3822 -10.0000
v  -10.0000 5.3822 -12.8052
v  -2.1731 0.0642 -15.0000
v  -2.1731 5.3822 -15.0000
v  7.5980 0.0642 -20.0000
v  7.5980 5.3822 -20.0000
v  0.0000 0.0642 25.0000
v  -5.0000 0.0642 25.0000
v  -5.0000 5.3822 25.0000
v  0.0000 5.3822 25.0000
v  5.0000 0.0642 25.0000
v  5.0000 5.3822 25.0000
v  -5.0000 0.0642 15.0000
v  -5.0000 0.0642 10.0000
v  -5.0000 5.3822 10.0000
v  -5.0000 5.3822 15.0000
v  -20.0000 0.0642 5.0000
v  -25.0000 0.0642 5.0000
v  -25.0000 5.3822 5.0000
v  -20.0000 5.3822 5.0000
v  -25.0000 0.0642 -0.0000
v  -25.0000 5.3822 -0.0000
v  -25.0000 0.0642 -5.0000
v  -25.0000 5.3822 -5.0000
v  18.9603 0.0642 -5.0000
v  20.0000 0.0642 -0.0000
v  20.0000 5.3822 -0.0000
v  18.9603 5.3822 -5.0000
v  -20.0000 0.0642 -10.0000
v  -15.0000 0.0642 -10.0000
v  -15.0000 5.3822 -10.0000
v  -20.0000 5.3822 -10.0000
v  -5.0000 0.0642 -20.0000
v  -5.0000 0.0642 -25.0000
v  -5.0000 5.3822 -25.0000
v  -5.0000 5.3822 -20.0000
v  0.0000 0.0642 -25.0000
v  0.0000 5.3822 -25.0000
v  5.0000 0.0642 -25.0000
v  5.0000 5.3822 -25.0000
v  -7.4871 0.0642 20.0000
v  -7.4871 5.3822 20.0000
v  -7.5082 0.0642 7.4918
v  -7.5082 5.3822 7.4918
v  -15.0000 0.0642 2.3009
v  -15.0000 5.3822 2.3009
v  -25.0000 0.0642 -7.7952
v  -25.0000 5.3822 -7.7952
v  18.2870 0.0642 -10.0000
v  18.2870 5.3822 -10.0000
v  16.0484 0.0642 5.0000
v  16.0484 5.3822 5.0000
v  17.3111 0.0642 10.0000
v  17.3111 5.3822 10.0000
v  13.6756 0.0642 15.0000
v  13.6756 5.3822 15.0000
v  8.0701 0.0642 20.0000
v  8.0701 5.3822 20.0000
v  -10.9313 0.0642 5.1200
v  -10.9313 5.3822 5.1200
# 66 vertices

vn -0.5394 0.0000 0.8420
vn -0.0922 -0.0000 0.9957
vn -0.9675 0.0000 -0.2529
vn 0.2691 0.0000 0.9631
vn 0.5039 0.0000 0.8638
vn -0.8882 0.0000 -0.4595
vn 0.0000 0.0000 -1.0000
vn 0.5266 0.0000 -0.8501
vn -0.4882 0.0000 -0.8727
vn 0.9735 0.0000 0.2287
vn 0.9239 0.0000 -0.3827
vn -0.2450 0.0000 -0.9695
vn 0.7071 0.0000 -0.7071
vn 1.0000 0.0000 -0.0000
vn -0.9857 0.0000 0.1686
vn -0.9732 0.0000 -0.2298
vn 0.2062 0.0000 0.9785
vn 0.2529 0.0000 0.9675
vn 0.9671 0.0000 -0.2545
vn 0.7071 0.0000 0.7071
vn 0.0000 0.0000 1.0000
vn -0.5191 0.0000 0.8547
vn 0.6409 0.0000 -0.7676
vn 0.0554 -0.0000 -0.9985
vn 0.0555 -0.0000 -0.9985
vn 0.8377 0.0000 0.5461
vn 0.5039 0.0000 -0.8638
vn -0.8802 -0.0000 -0.4747
vn -0.9367 0.0000 0.3501
vn -0.9779 0.0000 -0.2092
vn -0.9819 0.0000 -0.1896
vn -0.9819 0.0000 -0.1895
vn -0.7414 0.0000 -0.6710
vn -0.7671 0.0000 -0.6416
vn 0.5695 0.0000 -0.8220
# 35 vertex normals

vt 0.9149 0.6045 0.0000
vt 0.9619 0.5489 0.0000
vt 0.6333 0.7850 0.0000
vt 0.6684 0.7017 0.0000
vt 0.7504 0.7279 0.0000
vt 0.9178 0.6817 0.0000
vt 0.4005 0.2599 0.0000
vt 0.3389 0.3120 0.0000
vt 0.4621 0.2078 0.0000
vt 0.4330 0.4234 0.0000
vt 0.4801 0.4790 0.0000
vt 0.3424 0.6910 0.0000
vt 0.2808 0.7431 0.0000
vt 0.3279 0.7988 0.0000
vt 0.3750 0.8544 0.0000
vt 0.9166 0.3963 0.0000
vt 0.8823 0.3298 0.0000
vt 0.4836 0.8580 0.0000
vt 0.5452 0.8059 0.0000
vt 0.7626 0.8130 0.0000
vt 0.8097 0.8686 0.0000
vt 0.8713 0.8165 0.0000
vt 0.9329 0.7644 0.0000
vt 0.3553 0.3936 0.0000
vt 0.4728 0.5331 0.0000
vt 0.4294 0.6689 0.0000
vt 0.4013 0.8855 0.0000
vt 0.9553 0.4590 0.0000
vt 0.7865 0.3153 0.0000
vt 0.7550 0.2465 0.0000
vt 0.6631 0.2287 0.0000
vt 0.5470 0.2315 0.0000
vt 0.4530 0.5952 0.0000
# 33 texture coords

o RoomD_Collider
g RoomD_Collider
s off
f 1/1/1 2/2/2 3/2/2 4/1/1 
f 5/3/3 6/4/4 7/4/4 8/3/3 
f 6/4/4 9/5/5 10/5/5 7/4/4 
f 11/6/6 1/1/1 4/1/1 12/6/6 
f 13/7/7 14/8/8 15/8/8 16/7/7 
f 17/9/9 13/7/7 16/7/7 18/9/9 
f 19/10/10 20/11/11 21/11/11 22/10/10 
f 23/12/12 24/13/13 25/13/13 26/12/12 
f 24/13/13 27/14/14 28/14/14 25/13/13 
f 27/14/14 29/15/14 30/15/14 28/14/14 
f 31/16/15 32/17/16 33/17/16 34/16/15 
f 35/18/17 36/19/18 37/19/18 38/18/17 
f 39/20/19 40/21/20 41/21/20 42/20/19 
f 40/21/20 43/22/21 44/22/21 41/21/20 
f 43/22/21 45/23/22 46/23/22 44/22/21 
f 14/8/8 47/24/14 48/24/14 15/8/8 
f 47/24/14 19/10/10 22/10/10 48/24/14 
f 20/11/11 49/25/23 50/25/23 21/11/11 
f 51/26/24 23/12/12 26/12/12 52/26/25 
f 29/15/14 53/27/26 54/27/26 30/15/14 
f 53/27/26 35/18/17 38/18/17 54/27/26 
f 5/3/18 5/3/3 8/3/3 8/3/18 
f 36/19/18 5/3/18 8/3/18 37/19/18 
f 9/5/27 39/20/19 42/20/19 10/5/27 
f 9/5/5 9/5/27 10/5/27 10/5/5 
f 11/6/22 11/6/6 12/6/6 12/6/22 
f 45/23/22 11/6/22 12/6/22 46/23/22 
f 2/2/28 55/28/29 56/28/29 3/2/28 
f 2/2/2 2/2/28 3/2/28 3/2/2 
f 55/28/29 31/16/15 34/16/15 56/28/29 
f 32/17/16 57/29/30 58/29/30 33/17/16 
f 57/29/30 59/30/31 60/30/32 58/29/30 
f 59/30/31 61/31/33 62/31/33 60/30/32 
f 61/31/33 63/32/34 64/32/34 62/31/33 
f 63/32/34 17/9/9 18/9/9 64/32/34 
f 65/33/35 51/26/24 52/26/25 66/33/35 
f 49/25/23 65/33/35 66/33/35 50/25/23 
# 37 polygons

