# 3ds Max Wavefront OBJ Exporter v0.97b - (c)2007 guruware
# File Created: 24.03.2019 17:29:39

#
# object RoomC_Collider
#

v  0.0000 0.1581 25.0000
v  -5.0000 0.1581 25.0000
v  -5.0000 8.1968 25.0000
v  0.0000 8.1968 25.0000
v  5.0000 0.1581 25.0000
v  5.0000 8.1968 25.0000
v  10.0000 0.1581 20.0000
v  7.1974 0.1581 20.0000
v  7.1974 8.1968 20.0000
v  10.0000 8.1968 20.0000
v  -2.6409 0.1581 10.0000
v  0.0000 0.1581 10.0000
v  0.0000 8.1968 10.0000
v  -2.6409 8.1968 10.0000
v  20.0000 0.1581 10.0000
v  17.6423 0.1581 10.0000
v  17.6423 8.1968 10.0000
v  20.0000 8.1968 10.0000
v  -20.0000 0.1581 5.0000
v  -25.0000 0.1581 5.0000
v  -25.0000 8.1968 5.0000
v  -20.0000 8.1968 5.0000
v  0.0000 0.1581 7.6311
v  0.0000 8.1968 7.6311
v  20.0000 0.1581 5.0000
v  20.0000 8.1968 5.0000
v  -25.0000 0.1581 -0.0000
v  -25.0000 8.1968 -0.0000
v  -25.0000 0.1581 -5.0000
v  -25.0000 8.1968 -5.0000
v  -10.0000 0.1581 -5.0000
v  -12.4815 0.1581 -5.0000
v  -12.4815 8.1968 -5.0000
v  -10.0000 8.1968 -5.0000
v  25.0000 0.1581 -10.0000
v  25.0000 0.1581 -5.0000
v  25.0000 8.1968 -5.0000
v  25.0000 8.1968 -10.0000
v  -20.0000 0.1581 -10.0000
v  -20.9153 0.1581 -16.2888
v  -20.9153 8.1968 -16.2888
v  -20.0000 8.1968 -10.0000
v  -20.9153 0.1581 -21.2888
v  -20.9153 8.1968 -21.2888
v  -15.9153 0.1581 -21.2888
v  -15.9153 8.1968 -21.2888
v  15.0000 0.1581 -20.0000
v  20.0000 0.1581 -20.0000
v  20.0000 8.1968 -20.0000
v  15.0000 8.1968 -20.0000
v  -5.0000 0.1581 -25.0000
v  0.0000 0.1581 -25.0000
v  0.0000 8.1968 -25.0000
v  -5.0000 8.1968 -25.0000
v  5.0000 0.1581 -25.0000
v  5.0000 8.1968 -25.0000
v  -7.2958 0.1581 20.0000
v  -7.2958 8.1968 20.0000
v  -5.0000 0.1581 15.0000
v  -5.0000 8.1968 15.0000
v  5.0000 0.1581 5.0000
v  5.0000 8.1968 5.0000
v  2.6243 0.1581 -0.0000
v  2.6243 8.1968 -0.0000
v  0.0000 0.1581 -5.0000
v  0.0000 8.1968 -5.0000
v  -5.0000 0.1581 -7.8937
v  -5.0000 8.1968 -7.8937
v  -15.0000 0.1581 -0.0000
v  -15.0000 8.1968 -0.0000
v  -18.1158 0.1581 5.0000
v  -18.1158 8.1968 5.0000
v  15.0000 0.1581 15.0000
v  15.0000 8.1968 15.0000
v  22.1303 0.1581 -0.0000
v  22.1303 8.1968 -0.0000
v  22.2865 0.1581 -15.0000
v  22.2865 8.1968 -15.0000
v  10.0000 0.1581 -22.7149
v  10.0000 8.1968 -22.7149
v  -10.0000 0.1581 -22.7121
v  -10.0000 8.1968 -22.7121
# 82 vertices

vn 0.0000 0.0000 -1.0000
vn 0.5398 0.0000 -0.8418
vn -0.5467 0.0000 -0.8374
vn -0.3826 0.0000 -0.9239
vn -0.3827 0.0000 -0.9239
vn 0.5354 0.0000 0.8446
vn 0.7071 0.0000 0.7071
vn 0.5353 0.0000 0.8446
vn -0.7071 0.0000 -0.7071
vn -0.5161 0.0000 -0.8565
vn 0.7071 0.0000 -0.7071
vn 0.8561 0.0000 0.5169
vn -0.9798 0.0000 -0.2000
vn 1.0000 0.0000 -0.0000
vn 0.9239 0.0000 0.3826
vn -0.2593 0.0000 -0.9658
vn -0.5245 0.0000 -0.8514
vn -0.9693 0.0000 0.2461
vn -0.9663 0.0000 -0.2576
vn 0.9491 0.0000 0.3149
vn 0.9974 0.0000 -0.0722
vn 0.1178 0.0000 0.9930
vn -0.2462 0.0000 0.9692
vn -0.5404 0.0000 0.8414
vn 0.2129 0.0000 0.9771
vn 0.0000 0.0000 1.0000
vn -0.2127 0.0000 0.9771
vn 1.0000 0.0000 -0.0001
vn 0.9066 0.0000 0.4220
vn 0.9488 0.0000 0.3159
vn 0.8945 0.0000 -0.4470
vn 0.7216 0.0000 -0.6924
vn -0.8718 0.0000 -0.4899
vn -0.4853 0.0000 -0.8743
vn -0.8046 -0.0000 -0.5938
vn -0.8952 0.0000 -0.4457
vn -0.8947 0.0000 0.4467
vn -0.4467 0.0000 0.8947
vn 0.3265 0.0000 0.9452
# 39 vertex normals

vt 0.9764 0.9615 0.0000
vt 0.8811 0.9615 0.0000
vt 0.6906 0.9615 0.0000
vt 0.5953 0.9615 0.0000
vt 0.6454 0.9615 0.0000
vt 0.5000 0.9615 0.0000
vt 0.4047 0.9615 0.0000
vt 0.3094 0.9615 0.0000
vt 0.1896 0.9615 0.0000
vt 0.0943 0.9615 0.0000
vt 0.1189 0.9615 0.0000
vt 0.0236 0.9615 0.0000
vt 0.7858 0.9615 0.0000
vt 0.3496 0.9615 0.0000
vt 0.2142 0.9615 0.0000
vt 0.0671 0.9615 0.0000
vt 0.0672 0.9615 0.0000
# 17 texture coords

o RoomC_Collider
g RoomC_Collider
s off
f 1/1/1 2/1/2 3/1/2 4/1/1 
f 5/1/3 1/1/1 4/1/1 6/1/3 
f 7/2/4 8/2/3 9/2/3 10/2/5 
f 11/3/6 12/3/7 13/3/7 14/3/8 
f 15/3/9 16/3/10 17/3/10 18/3/9 
f 19/4/1 20/4/11 21/4/11 22/4/1 
f 12/3/7 23/5/12 24/5/12 13/3/7 
f 25/4/13 15/3/9 18/3/9 26/4/13 
f 20/4/11 27/6/14 28/6/14 21/4/11 
f 27/6/14 29/7/15 30/7/15 28/6/14 
f 31/7/16 32/7/17 33/7/17 34/7/16 
f 35/8/18 36/7/19 37/7/19 38/8/18 
f 39/8/20 40/9/21 41/9/21 42/8/20 
f 40/9/21 43/10/7 44/10/7 41/9/21 
f 43/10/7 45/10/22 46/10/22 44/10/7 
f 47/11/23 48/11/24 49/11/24 50/11/23 
f 51/12/25 52/12/26 53/12/26 54/12/25 
f 52/12/26 55/12/27 56/12/27 53/12/26 
f 2/1/2 57/2/14 58/2/28 3/1/2 
f 57/2/14 59/13/29 60/13/29 58/2/28 
f 59/13/29 11/3/6 14/3/8 60/13/29 
f 23/5/12 61/4/30 62/4/30 24/5/12 
f 61/4/30 63/6/31 64/6/31 62/4/30 
f 63/6/31 65/7/32 66/7/32 64/6/31 
f 65/7/32 67/14/1 68/14/1 66/7/32 
f 67/14/1 31/7/16 34/7/16 68/14/1 
f 32/7/17 69/6/33 70/6/33 33/7/17 
f 71/4/34 19/4/1 22/4/1 72/4/34 
f 69/6/33 71/4/34 72/4/34 70/6/33 
f 8/2/3 5/1/3 6/1/3 9/2/3 
f 73/13/35 7/2/4 10/2/5 74/13/35 
f 16/3/10 73/13/35 74/13/35 17/3/10 
f 75/6/36 25/4/13 26/4/13 76/6/36 
f 36/7/19 75/6/36 76/6/36 37/7/19 
f 77/15/37 35/8/18 38/8/18 78/15/37 
f 48/11/24 77/15/37 78/15/37 49/11/24 
f 79/16/38 47/11/23 50/11/23 80/16/38 
f 55/12/27 79/16/38 80/16/38 56/12/27 
f 81/17/39 51/12/25 54/12/25 82/17/39 
f 45/10/22 81/17/39 82/17/39 46/10/22 
f 29/7/15 39/8/20 42/8/20 30/7/15 
# 41 polygons

