# 3ds Max Wavefront OBJ Exporter v0.97b - (c)2007 guruware
# File Created: 01.05.2019 20:52:21

#
# object amphora_cracked001
#

v  -3.7669 43.3533 -6.2082
v  -5.6812 43.3533 -5.5547
v  -4.8999 47.8062 -4.7908
v  -3.2489 47.8062 -5.3544
v  7.1344 43.3533 -0.0000
v  6.4550 47.8062 -0.0000
v  6.0169 47.8063 1.6628
v  6.9763 43.3533 1.9280
v  6.8702 52.4085 -0.0000
v  4.8999 47.8062 4.7908
v  5.6591 55.7410 5.5331
v  3.7523 55.7410 6.1841
v  3.2489 47.8062 5.3544
v  6.9692 55.7410 -1.8644
v  6.0342 47.8062 -1.6143
v  4.8999 47.8062 -4.7908
v  5.6591 55.7410 -5.5331
v  7.1709 55.7410 -0.0000
v  7.8699 56.0524 -0.0000
v  7.5421 56.3563 1.2518
v  6.9492 55.7410 1.9205
v  5.8332 56.0524 5.7034
v  3.8677 56.0524 6.3743
v  5.8332 56.0524 -5.7034
v  7.5613 56.3563 -1.4501
v  10.6796 59.9774 -0.0000
v  11.0128 61.0477 -0.0000
v  10.0236 61.0477 2.7701
v  9.8403 59.9524 2.7194
v  8.0135 59.9524 7.8351
v  8.1628 61.0477 7.9810
v  5.4123 61.0477 8.9200
v  5.3133 59.9524 8.7568
v  8.0135 59.9524 -7.8351
v  8.1628 61.0477 -7.9810
v  10.0525 61.0477 -2.6892
v  9.8686 59.9524 -2.6401
v  11.1758 61.7414 -0.0000
v  10.1719 61.7414 2.8111
v  8.2836 61.7414 8.0992
v  5.4924 61.7414 9.0520
v  8.2836 61.7414 -8.0992
v  10.2013 61.7414 -2.7290
v  9.7027 62.3907 -0.0000
v  8.8312 62.3907 2.4406
v  7.1917 62.3907 7.0316
v  4.7684 62.3907 7.8589
v  7.1917 62.3907 -7.0316
v  8.8566 62.3907 -2.3693
v  7.8215 61.4075 -0.0000
v  7.1190 61.4075 1.9674
v  5.7974 61.4075 5.6683
v  3.8439 61.4075 6.3351
v  5.7974 61.4075 -5.6683
v  7.1395 61.4075 -1.9100
v  7.3056 61.4075 -0.0000
v  6.6494 61.4075 1.8376
v  5.4149 61.4075 5.2944
v  3.5904 61.4075 5.9173
v  5.4149 61.4075 -5.2944
v  6.6685 61.4075 -1.7840
v  6.8764 58.6866 -0.0000
v  6.2588 58.6866 1.4712
v  5.0969 58.6866 4.9834
v  3.3795 58.6866 5.5697
v  5.0969 58.6866 -4.9834
v  6.2768 58.6866 -1.6792
v  5.9415 50.3377 -0.0000
v  5.4078 50.3377 1.4945
v  4.4039 50.3377 4.3059
v  2.9200 50.3377 4.8124
v  4.4039 50.3377 -4.3059
v  5.4234 50.3377 -1.4509
v  6.5183 42.3898 -0.0000
v  5.9328 42.3898 1.6396
v  4.8314 42.3898 4.7238
v  3.2034 42.3898 5.2796
v  4.7140 44.5724 -4.6090
v  4.8314 42.3898 -4.7238
v  5.9499 42.3898 -1.5917
v  6.8139 57.8066 6.6622
v  7.6155 57.8066 4.4173
v  8.7379 59.6030 5.0684
v  7.8181 59.6030 7.6441
v  0.0000 57.8066 8.9883
v  4.5179 57.8066 7.4460
v  5.1838 59.6030 8.5434
v  0.0000 59.6030 10.3130
v  6.8139 57.8066 -6.6622
v  4.5179 57.8066 -7.4460
v  5.1838 59.6030 -8.5434
v  7.8181 59.6030 -7.6441
v  8.9562 59.9524 5.1950
v  0.0000 59.9524 10.5707
v  9.5439 59.1748 -1.9464
v  5.3133 59.9524 -8.7568
v  6.5195 56.0524 3.7816
v  0.0000 56.0524 7.6947
v  3.8677 56.0524 -6.3743
v  6.3496 43.3533 3.6830
v  5.8668 45.8152 3.4030
v  5.6812 43.3533 5.5547
v  6.9964 43.3533 -1.8717
v  5.4764 47.8062 3.1765
v  6.3249 55.7410 3.6687
v  0.0000 55.7410 7.4650
v  0.0000 47.8062 6.4635
v  3.2489 47.8062 -5.3544
v  3.7523 55.7410 -6.1841
v  9.1231 61.0477 5.2918
v  0.0000 61.0477 10.7676
v  5.4123 61.0477 -8.9200
v  9.2581 61.7414 5.3701
v  0.0000 61.7414 10.9270
v  5.4924 61.7414 -9.0520
v  8.0378 62.3907 4.6623
v  0.0000 62.3907 9.4867
v  4.7684 62.3907 -7.8589
v  6.4794 61.4075 3.7583
v  0.0000 61.4075 7.6474
v  3.8439 61.4075 -6.3352
v  6.0520 61.4075 3.5104
v  0.0000 61.4075 7.1429
v  3.5904 61.4075 -5.9173
v  5.6965 58.6866 3.3042
v  0.0000 58.6866 6.7233
v  3.3795 58.6866 -5.5697
v  4.9220 50.3377 2.8550
v  0.0000 50.3377 5.8092
v  0.0000 55.0156 6.3214
v  2.9200 50.3377 -4.8124
v  5.3998 42.3898 3.1321
v  0.0000 46.1051 6.1095
v  8.3672 57.8066 2.3124
v  9.5181 59.1748 1.7629
v  8.3913 57.8066 -2.2449
v  12.8118 59.8133 -0.0099
v  12.1831 58.9840 -1.4664
v  11.4059 56.5252 -1.0951
v  11.6947 56.3782 -0.0099
v  11.6702 57.7474 -1.6898
v  12.1647 58.9782 1.3094
v  11.3922 56.5208 0.9269
v  11.6530 57.7420 1.7205
v  16.3108 58.6165 -0.0109
v  15.5188 57.9990 -1.4165
v  14.1843 55.8985 -1.0581
v  14.4172 55.6898 -0.0109
v  14.7338 56.9729 -1.6320
v  15.5002 57.9981 1.2622
v  14.1704 55.8979 0.8931
v  13.2508 57.3404 1.6884
v  19.4429 55.3327 -0.0068
v  17.3037 56.1504 -1.5440
v  16.0122 53.2920 -0.0068
v  15.7512 55.8339 -1.7363
v  0.0000 47.8062 -6.4635
v  3.7669 43.3533 -6.2082
v  5.2708 45.6925 -5.1534
v  3.4515 45.4513 5.8303
v  -3.7523 55.7410 6.1841
v  -2.2777 48.7105 5.8001
v  -2.7011 56.0524 6.7726
v  -4.5179 57.8066 7.4460
v  -3.5101 60.3878 9.4507
v  -4.4788 61.0477 9.2387
v  -5.4924 61.7414 9.0520
v  -0.9891 62.2668 9.4238
v  -0.8341 62.3907 9.2020
v  -2.0634 61.4075 6.4385
v  -3.3795 58.6866 5.5697
v  -0.3115 55.6895 6.2889
v  0.0000 42.3898 6.3731
v  -3.2034 42.3898 5.2796
v  3.2034 42.3898 -5.2796
v  1.6685 53.8514 -5.6243
v  0.0000 50.3377 -5.8092
v  0.0000 58.6866 -6.7233
v  2.4029 59.5532 -6.0367
v  0.0000 62.3907 -9.4867
v  2.2352 62.0978 -8.1757
v  2.7667 61.7414 -9.9825
v  3.7249 61.0477 -9.4960
v  4.4480 59.6030 -8.7945
v  0.0000 57.8066 -8.9883
v  3.1866 56.0524 -6.6069
v  0.0000 52.7420 -7.0865
# 187 vertices

vn -0.3156 0.2140 -0.9245
vn -0.3199 0.1388 -0.9372
vn 0.9886 0.1508 0.0040
vn 0.9995 0.0313 0.0013
vn 0.9553 0.0560 0.2904
vn 0.9538 0.2178 0.2067
vn 0.9960 -0.0899 0.0013
vn 0.7003 0.0567 0.7116
vn 0.6372 -0.4165 0.6485
vn 0.3019 -0.3561 0.8843
vn 0.3227 0.0484 0.9453
vn 0.8974 -0.3785 -0.2268
vn 0.9556 0.0561 -0.2892
vn 0.7003 0.0567 -0.7116
vn 0.6372 -0.4165 -0.6485
vn 0.8005 -0.5993 0.0029
vn 0.2316 -0.9726 0.0208
vn 0.5998 -0.6858 0.4121
vn 0.9113 -0.3338 0.2410
vn 0.5524 -0.6159 0.5618
vn 0.2649 -0.5723 0.7761
vn 0.5536 -0.6159 -0.5606
vn 0.5798 -0.7093 -0.4009
vn 0.8715 0.4899 0.0236
vn 0.9653 -0.2612 0.0000
vn 0.9240 -0.1934 0.3300
vn 0.8659 -0.4070 0.2909
vn 0.6467 -0.3904 0.6553
vn 0.6858 -0.2135 0.6958
vn 0.3172 -0.1902 0.9291
vn 0.2989 -0.3792 0.8757
vn 0.6467 -0.3904 -0.6553
vn 0.6858 -0.2135 -0.6958
vn 0.9240 -0.1934 -0.3300
vn 0.8792 -0.3749 -0.2940
vn 0.9169 0.3992 -0.0000
vn 0.8449 0.4418 0.3017
vn 0.6479 0.3892 0.6548
vn 0.2900 0.4404 0.8496
vn 0.6479 0.3892 -0.6548
vn 0.8448 0.4418 -0.3017
vn 0.0611 0.9981 -0.0000
vn -0.0324 0.9994 -0.0116
vn 0.0594 0.9962 0.0639
vn -0.0112 0.9994 -0.0329
vn 0.0594 0.9962 -0.0639
vn -0.0324 0.9994 0.0116
vn -0.2862 0.9582 -0.0000
vn -0.2360 0.9681 -0.0843
vn -0.2035 0.9565 -0.2093
vn -0.0821 0.9671 -0.2406
vn -0.2035 0.9565 0.2093
vn -0.2360 0.9681 0.0843
vn -0.5520 0.8339 -0.0000
vn -0.6039 0.7673 -0.2157
vn -0.3603 0.8585 -0.3649
vn -0.2113 0.7564 -0.6190
vn -0.3603 0.8585 0.3649
vn -0.6151 0.7573 0.2196
vn -0.9906 0.1342 -0.0272
vn -0.9308 0.1362 -0.3391
vn -0.6952 0.1392 -0.7052
vn -0.3206 0.1238 -0.9391
vn -0.6952 0.1392 0.7052
vn -0.9343 0.1259 0.3336
vn -0.9998 0.0199 0.0000
vn -0.9417 0.0133 -0.3363
vn -0.7016 0.0208 -0.7122
vn -0.3230 0.0181 -0.9462
vn -0.7016 0.0208 0.7122
vn -0.9416 0.0184 0.3362
vn -0.9974 -0.0724 -0.0000
vn -0.9396 -0.0682 -0.3355
vn -0.7004 -0.0750 -0.7098
vn -0.3223 -0.0670 -0.9442
vn -0.8564 -0.0729 0.5112
vn -0.7004 -0.0750 0.7098
vn -0.9396 -0.0682 0.3355
vn 0.7678 -0.5791 0.2742
vn 0.7713 -0.5783 0.2659
vn 0.0000 -0.5935 0.8048
vn 0.1427 -0.5874 0.7966
vn 0.5524 -0.6159 -0.5618
vn 0.2649 -0.5723 -0.7761
vn 0.5517 -0.6158 -0.5624
vn 0.8694 -0.3844 0.3105
vn 0.0954 -0.3111 0.9456
vn 0.6870 -0.2400 -0.6859
vn 0.2984 -0.3829 -0.8743
vn 0.7737 -0.5777 0.2601
vn 0.9192 0.2176 0.3282
vn 0.7910 0.2356 0.5646
vn 0.9606 0.2176 -0.1730
vn 0.9406 0.0492 0.3359
vn 0.8783 -0.3610 0.3136
vn 0.0000 -0.3906 0.9206
vn 0.0947 -0.0639 0.9935
vn 0.3227 0.0484 -0.9453
vn 0.3010 -0.3631 -0.8818
vn 0.0000 -0.2015 0.9795
vn 0.3172 -0.1902 -0.9291
vn 0.8448 0.4418 0.3017
vn 0.0000 0.3997 0.9167
vn 0.2900 0.4404 -0.8496
vn -0.0000 0.9983 0.0585
vn -0.0112 0.9994 0.0329
vn -0.0514 0.9690 -0.2416
vn -0.0966 0.9543 0.2829
vn -0.6151 0.7573 -0.2196
vn -0.0000 0.8299 -0.5579
vn -0.2535 0.6198 0.7427
vn -0.9417 0.1254 -0.3123
vn -0.0000 0.1312 -0.9914
vn -0.3206 0.1238 0.9391
vn -0.9416 0.0184 -0.3362
vn -0.3230 0.0184 -0.9462
vn -0.2452 0.1055 -0.9637
vn -0.3226 0.0541 0.9450
vn -0.2051 -0.0693 -0.9763
vn 0.5912 -0.5658 0.5747
vn 0.6894 -0.1874 0.6997
vn 0.5703 -0.5515 -0.6088
vn 0.2213 0.9749 0.0242
vn 0.1703 0.5471 -0.8195
vn -0.0214 -0.8063 -0.5911
vn -0.1126 -0.9936 0.0042
vn 0.0791 -0.1454 -0.9862
vn 0.1712 0.5751 0.8000
vn -0.0177 -0.8686 0.4952
vn 0.0867 -0.1308 0.9876
vn 0.5618 0.8269 0.0241
vn 0.3010 0.5673 -0.7665
vn -0.3774 -0.7220 -0.5799
vn -0.6352 -0.7723 -0.0061
vn -0.0632 -0.0573 -0.9964
vn 0.3364 0.6679 0.6638
vn -0.4546 -0.8871 0.0801
vn 0.0501 0.1199 0.9915
vn 0.7088 0.6758 -0.2022
vn 0.6013 0.6157 -0.5093
vn -0.8326 -0.5539 -0.0064
vn -0.2059 -0.0947 -0.9740
vn 0.0000 0.0003 -1.0000
vn 0.3156 0.2140 -0.9245
vn 0.6551 0.2380 -0.7171
vn 0.3156 0.2140 0.9245
vn -0.3162 -0.2049 0.9263
vn -0.3208 -0.1186 0.9397
vn -0.2649 -0.5723 0.7761
vn -0.3185 -0.1677 0.9330
vn -0.3163 -0.2040 0.9265
vn -0.3188 0.1613 0.9340
vn 0.1389 -0.9028 -0.4070
vn -0.0092 0.9996 0.0271
vn 0.3139 0.2368 -0.9195
vn 0.3204 0.1271 -0.9387
vn -0.3214 -0.1031 0.9413
vn 0.0000 -0.0708 -0.9975
vn 0.3223 -0.0670 -0.9442
vn -0.3223 -0.0670 0.9442
vn 0.3214 -0.1031 -0.9413
vn -0.3214 0.1031 0.9413
vn -0.3210 0.1122 0.9404
vn 0.3197 -0.1444 -0.9365
vn 0.0563 0.9847 -0.1650
vn 0.1589 -0.8707 -0.4654
vn 0.1960 0.7950 -0.5740
vn 0.3163 -0.2044 -0.9264
vn 0.1915 -0.1229 -0.9738
# 169 vertex normals

vt 0.2778 0.4876 0.0000
vt 0.3043 0.4874 0.0000
vt 0.2914 0.5339 0.0000
vt 0.2694 0.5328 0.0000
vt 0.9012 0.5011 0.0000
vt 0.8815 0.5334 0.0000
vt 0.8658 0.5307 0.0000
vt 0.8852 0.4915 0.0000
vt 0.8899 0.5766 0.0000
vt 0.8323 0.5283 0.0000
vt 0.8380 0.6091 0.0000
vt 0.8165 0.6093 0.0000
vt 0.8111 0.5291 0.0000
vt 0.1246 0.6060 0.0000
vt 0.1337 0.5321 0.0000
vt 0.1678 0.5296 0.0000
vt 0.1641 0.6103 0.0000
vt 0.8960 0.6079 0.0000
vt 0.8934 0.6162 0.0000
vt 0.8844 0.6073 0.0000
vt 0.8776 0.6045 0.0000
vt 0.8396 0.6148 0.0000
vt 0.8179 0.6149 0.0000
vt 0.1624 0.6153 0.0000
vt 0.1189 0.6088 0.0000
vt 0.9249 0.6218 0.0000
vt 0.9320 0.6304 0.0000
vt 0.9082 0.6468 0.0000
vt 0.9021 0.6378 0.0000
vt 0.8574 0.6631 0.0000
vt 0.8611 0.6732 0.0000
vt 0.8333 0.6752 0.0000
vt 0.8311 0.6640 0.0000
vt 0.1447 0.6624 0.0000
vt 0.1409 0.6724 0.0000
vt 0.0917 0.6477 0.0000
vt 0.0974 0.6385 0.0000
vt 0.9364 0.6359 0.0000
vt 0.9121 0.6526 0.0000
vt 0.8633 0.6798 0.0000
vt 0.8346 0.6821 0.0000
vt 0.1387 0.6790 0.0000
vt 0.0882 0.6536 0.0000
vt 0.5989 0.5223 0.0000
vt 0.5863 0.5223 0.0000
vt 0.5789 0.5011 0.0000
vt 0.5903 0.4979 0.0000
vt 0.5743 0.4518 0.0000
vt 0.5650 0.4611 0.0000
vt 0.5443 0.4539 0.0000
vt 0.5505 0.4435 0.0000
vt 0.5743 0.5928 0.0000
vt 0.5650 0.5835 0.0000
vt 0.5791 0.5430 0.0000
vt 0.5906 0.5461 0.0000
vt 0.5703 0.5223 0.0000
vt 0.5643 0.5052 0.0000
vt 0.5531 0.4730 0.0000
vt 0.5365 0.4672 0.0000
vt 0.5531 0.5717 0.0000
vt 0.5645 0.5390 0.0000
vt 0.5659 0.5223 0.0000
vt 0.5603 0.5063 0.0000
vt 0.5498 0.4763 0.0000
vt 0.5343 0.4708 0.0000
vt 0.5498 0.5684 0.0000
vt 0.5605 0.5379 0.0000
vt 0.3111 0.9590 0.0000
vt 0.3176 0.9333 0.0000
vt 0.3327 0.9361 0.0000
vt 0.3295 0.9626 0.0000
vt 0.3636 0.9693 0.0000
vt 0.3678 0.9430 0.0000
vt 0.3853 0.9447 0.0000
vt 0.3815 0.9710 0.0000
vt 0.6813 0.9726 0.0000
vt 0.6778 0.9461 0.0000
vt 0.7112 0.9404 0.0000
vt 0.7162 0.9664 0.0000
vt 0.3365 0.8549 0.0000
vt 0.3517 0.8575 0.0000
vt 0.3811 0.8627 0.0000
vt 0.3971 0.8648 0.0000
vt 0.6667 0.8653 0.0000
vt 0.6964 0.8610 0.0000
vt 0.3423 0.7781 0.0000
vt 0.3587 0.7808 0.0000
vt 0.3882 0.7864 0.0000
vt 0.4034 0.7883 0.0000
vt 0.6617 0.8099 0.0000
vt 0.6598 0.7890 0.0000
vt 0.6906 0.7843 0.0000
vt 0.8468 0.6373 0.0000
vt 0.8670 0.6284 0.0000
vt 0.8777 0.6473 0.0000
vt 0.8551 0.6591 0.0000
vt 0.7770 0.6428 0.0000
vt 0.8233 0.6372 0.0000
vt 0.8293 0.6593 0.0000
vt 0.7780 0.6660 0.0000
vt 0.1557 0.6372 0.0000
vt 0.1788 0.6374 0.0000
vt 0.1728 0.6594 0.0000
vt 0.1473 0.6586 0.0000
vt 0.8804 0.6508 0.0000
vt 0.7782 0.6709 0.0000
vt 0.0749 0.6237 0.0000
vt 0.0981 0.6284 0.0000
vt 0.1710 0.6640 0.0000
vt 0.8591 0.6091 0.0000
vt 0.7760 0.6189 0.0000
vt 0.1841 0.6153 0.0000
vt 0.8660 0.4867 0.0000
vt 0.8574 0.5100 0.0000
vt 0.8432 0.4814 0.0000
vt 0.1176 0.4920 0.0000
vt 0.1183 0.5343 0.0000
vt 0.1014 0.5002 0.0000
vt 0.8505 0.5289 0.0000
vt 0.8583 0.6063 0.0000
vt 0.7756 0.6120 0.0000
vt 0.7715 0.5302 0.0000
vt 0.1112 0.5774 0.0000
vt 0.1895 0.5300 0.0000
vt 0.1853 0.6100 0.0000
vt 0.1074 0.6164 0.0000
vt 0.1060 0.6086 0.0000
vt 0.8858 0.6604 0.0000
vt 0.7786 0.6821 0.0000
vt 0.0681 0.6326 0.0000
vt 0.1687 0.6751 0.0000
vt 0.8890 0.6666 0.0000
vt 0.7789 0.6892 0.0000
vt 0.0640 0.6383 0.0000
vt 0.1674 0.6820 0.0000
vt 0.5825 0.4756 0.0000
vt 0.5722 0.4818 0.0000
vt 0.5038 0.4398 0.0000
vt 0.5038 0.4272 0.0000
vt 0.5505 0.6011 0.0000
vt 0.5443 0.5907 0.0000
vt 0.5589 0.4896 0.0000
vt 0.5038 0.4558 0.0000
vt 0.5365 0.5775 0.0000
vt 0.5553 0.4918 0.0000
vt 0.5038 0.4602 0.0000
vt 0.5343 0.5738 0.0000
vt 0.3461 0.9657 0.0000
vt 0.3508 0.9396 0.0000
vt 0.4196 0.9490 0.0000
vt 0.4170 0.9755 0.0000
vt 0.7282 0.9375 0.0000
vt 0.7342 0.9633 0.0000
vt 0.6635 0.9737 0.0000
vt 0.6602 0.9474 0.0000
vt 0.3658 0.8601 0.0000
vt 0.4279 0.8682 0.0000
vt 0.4233 0.9135 0.0000
vt 0.7112 0.8588 0.0000
vt 0.6504 0.8672 0.0000
vt 0.3731 0.7836 0.0000
vt 0.4314 0.8274 0.0000
vt 0.7065 0.7818 0.0000
vt 0.8862 0.6196 0.0000
vt 0.9030 0.6258 0.0000
vt 0.1138 0.6198 0.0000
vt 0.8385 0.9665 0.0000
vt 0.8388 0.9469 0.0000
vt 0.8571 0.9495 0.0000
vt 0.8631 0.9746 0.0000
vt 0.8992 0.9792 0.0000
vt 0.8852 0.9429 0.0000
vt 0.8946 0.9363 0.0000
vt 0.9109 0.9701 0.0000
vt 0.8714 0.9476 0.0000
vt 0.8810 0.9792 0.0000
vt 0.8154 0.9746 0.0000
vt 0.8215 0.9494 0.0000
vt 0.7675 0.9693 0.0000
vt 0.7844 0.9357 0.0000
vt 0.7922 0.9421 0.0000
vt 0.7774 0.9780 0.0000
vt 0.7969 0.9793 0.0000
vt 0.8068 0.9475 0.0000
vt 0.8390 0.9149 0.0000
vt 0.8549 0.9172 0.0000
vt 0.8808 0.9123 0.0000
vt 0.8914 0.9085 0.0000
vt 0.8675 0.9159 0.0000
vt 0.8242 0.9172 0.0000
vt 0.7879 0.9078 0.0000
vt 0.7970 0.9118 0.0000
vt 0.8091 0.9309 0.0000
vt 0.8393 0.8766 0.0000
vt 0.8558 0.8938 0.0000
vt 0.8955 0.8777 0.0000
vt 0.8683 0.9005 0.0000
vt 0.7843 0.8770 0.0000
vt 0.2294 0.5308 0.0000
vt 0.1844 0.4844 0.0000
vt 0.1631 0.5072 0.0000
vt 0.8132 0.5050 0.0000
vt 0.7347 0.6127 0.0000
vt 0.7447 0.5408 0.0000
vt 0.7467 0.6186 0.0000
vt 0.7305 0.6411 0.0000
vt 0.7428 0.6738 0.0000
vt 0.7331 0.6802 0.0000
vt 0.7228 0.6868 0.0000
vt 0.4953 0.4403 0.0000
vt 0.4570 0.4435 0.0000
vt 0.4967 0.4422 0.0000
vt 0.4862 0.4663 0.0000
vt 0.4376 0.9769 0.0000
vt 0.4541 0.9514 0.0000
vt 0.4259 0.9203 0.0000
vt 0.4344 0.7917 0.0000
vt 0.4653 0.7941 0.0000
vt 0.6449 0.7906 0.0000
vt 0.6391 0.9024 0.0000
vt 0.6192 0.8700 0.0000
vt 0.6258 0.9510 0.0000
vt 0.6506 0.9569 0.0000
vt 0.5038 0.6049 0.0000
vt 0.5228 0.5935 0.0000
vt 0.5273 0.6092 0.0000
vt 0.1951 0.6856 0.0000
vt 0.1858 0.6773 0.0000
vt 0.1801 0.6604 0.0000
vt 0.2248 0.6429 0.0000
vt 0.1914 0.6160 0.0000
vt 0.2273 0.5815 0.0000
# 232 texture coords

o amphora_cracked001
g amphora_cracked001
s 1
f 1/1/1 2/2/1 3/3/1 4/4/2 
f 5/5/3 6/6/4 7/7/5 8/8/6 
f 6/6/4 9/9/7 7/7/5 
f 10/10/8 11/11/9 12/12/10 13/13/11 
f 14/14/12 15/15/13 16/16/14 17/17/15 
f 18/18/16 19/19/17 20/20/18 21/21/19 
f 11/11/9 22/22/20 23/23/21 12/12/10 
f 17/17/15 24/24/22 25/25/23 14/14/12 
f 26/26/24 27/27/25 28/28/26 29/29/27 
f 30/30/28 31/31/29 32/32/30 33/33/31 
f 34/34/32 35/35/33 36/36/34 37/37/35 
f 27/27/25 38/38/36 39/39/37 28/28/26 
f 31/31/29 40/40/38 41/41/39 32/32/30 
f 35/35/33 42/42/40 43/43/41 36/36/34 
f 38/44/36 44/45/42 45/46/43 39/47/37 
f 40/48/38 46/49/44 47/50/45 41/51/39 
f 42/52/40 48/53/46 49/54/47 43/55/41 
f 44/45/42 50/56/48 51/57/49 45/46/43 
f 46/49/44 52/58/50 53/59/51 47/50/45 
f 48/53/46 54/60/52 55/61/53 49/54/47 
f 50/56/48 56/62/54 57/63/55 51/57/49 
f 52/58/50 58/64/56 59/65/57 53/59/51 
f 54/60/52 60/66/58 61/67/59 55/61/53 
f 56/68/54 62/69/60 63/70/61 57/71/55 
f 58/72/56 64/73/62 65/74/63 59/75/57 
f 60/76/58 66/77/64 67/78/65 61/79/59 
f 62/69/60 68/80/66 69/81/67 63/70/61 
f 64/73/62 70/82/68 71/83/69 65/74/63 
f 66/77/64 72/84/70 73/85/71 67/78/65 
f 68/80/66 74/86/72 75/87/73 69/81/67 
f 70/82/68 76/88/74 77/89/75 71/83/69 
f 72/84/70 78/90/76 79/91/77 80/92/78 73/85/71 
f 81/93/20 82/94/79 83/95/80 84/96/20 
f 85/97/81 86/98/21 87/99/21 88/100/82 
f 89/101/83 90/102/84 91/103/84 92/104/85 
f 84/96/20 83/95/80 93/105/86 30/30/28 
f 88/100/82 87/99/21 33/33/31 94/106/87 
f 26/107/24 95/108/88 37/37/35 
f 92/104/85 91/103/84 96/109/89 34/34/32 
f 22/22/20 97/110/90 82/94/79 81/93/20 
f 98/111/81 23/23/21 86/98/21 85/97/81 
f 24/24/22 99/112/84 90/102/84 89/101/83 
f 100/113/91 101/114/91 102/115/92 
f 103/116/93 15/15/13 6/117/4 5/118/3 
f 104/119/94 105/120/95 11/11/9 10/10/8 
f 13/13/11 12/12/10 106/121/96 107/122/97 
f 15/15/13 9/123/7 6/117/4 
f 108/124/98 109/125/99 17/17/15 16/16/14 
f 105/120/95 97/110/90 22/22/20 11/11/9 
f 12/12/10 23/23/21 98/111/81 106/121/96 
f 14/14/12 25/25/23 19/126/17 18/127/16 
f 109/125/99 99/112/84 24/24/22 17/17/15 
f 93/105/86 110/128/26 31/31/29 30/30/28 
f 33/33/31 32/32/30 111/129/100 94/106/87 
f 37/37/35 36/36/34 27/130/25 26/107/24 
f 96/109/89 112/131/101 35/35/33 34/34/32 
f 110/128/26 113/132/102 40/40/38 31/31/29 
f 32/32/30 41/41/39 114/133/103 111/129/100 
f 36/36/34 43/43/41 38/134/36 27/130/25 
f 112/131/101 115/135/104 42/42/40 35/35/33 
f 113/136/102 116/137/43 46/49/44 40/48/38 
f 41/51/39 47/50/45 117/138/105 114/139/103 
f 43/55/41 49/54/47 44/45/42 38/44/36 
f 115/140/104 118/141/106 48/53/46 42/52/40 
f 116/137/43 119/142/49 52/58/50 46/49/44 
f 47/50/45 53/59/51 120/143/107 117/138/105 
f 49/54/47 55/61/53 50/56/48 44/45/42 
f 118/141/106 121/144/108 54/60/52 48/53/46 
f 119/142/49 122/145/109 58/64/56 52/58/50 
f 53/59/51 59/65/57 123/146/110 120/143/107 
f 55/61/53 61/67/59 56/62/54 50/56/48 
f 121/144/108 124/147/111 60/66/58 54/60/52 
f 122/148/109 125/149/112 64/73/62 58/72/56 
f 59/75/57 65/74/63 126/150/113 123/151/110 
f 61/79/59 67/78/65 62/152/60 56/153/54 
f 124/154/111 127/155/114 66/77/64 60/76/58 
f 125/149/112 128/156/115 70/82/68 64/73/62 
f 71/83/69 129/157/116 130/158/117 
f 67/78/65 73/85/71 68/159/66 62/152/60 
f 127/155/114 131/160/118 72/84/70 66/77/64 
f 128/156/115 132/161/73 76/88/74 70/82/68 
f 71/83/69 133/162/119 129/157/116 
f 73/85/71 80/92/78 74/163/72 68/159/66 
f 83/95/80 82/94/79 134/164/120 135/165/121 
f 87/99/21 86/98/21 81/93/20 84/96/20 
f 95/108/88 136/166/122 89/101/83 92/104/85 
f 93/105/86 83/95/80 135/165/121 29/29/27 
f 33/33/31 87/99/21 84/96/20 30/30/28 
f 37/37/35 95/108/88 92/104/85 34/34/32 
f 82/94/79 97/110/90 20/20/18 134/164/120 
f 86/98/21 23/23/21 22/22/20 81/93/20 
f 136/166/122 25/25/23 24/24/22 89/101/83 
f 8/8/6 7/7/5 101/114/91 100/113/91 
f 7/7/5 21/21/19 105/120/95 104/119/94 
f 21/21/19 20/20/18 97/110/90 105/120/95 
f 29/29/27 28/28/26 110/128/26 93/105/86 
f 28/28/26 39/39/37 113/132/102 110/128/26 
f 39/47/37 45/46/43 116/137/43 113/136/102 
f 45/46/43 51/57/49 119/142/49 116/137/43 
f 51/57/49 57/63/55 122/145/109 119/142/49 
f 57/71/55 63/70/61 125/149/112 122/148/109 
f 63/70/61 69/81/67 128/156/115 125/149/112 
f 69/81/67 75/87/73 132/161/73 128/156/115 
f 29/29/27 135/165/121 26/26/24 
f 26/167/24 137/168/123 138/169/124 95/170/88 
f 25/171/23 139/172/125 140/173/126 19/174/17 
f 95/170/88 138/169/124 141/175/127 136/176/122 
f 136/176/122 141/175/127 139/172/125 25/171/23 
f 135/177/121 142/178/128 137/168/123 26/167/24 
f 19/179/17 140/180/126 143/181/129 20/182/18 
f 134/183/120 144/184/130 142/178/128 135/177/121 
f 20/182/18 143/181/129 144/184/130 134/183/120 
f 137/168/123 145/185/131 146/186/132 138/169/124 
f 139/172/125 147/187/133 148/188/134 140/173/126 
f 138/169/124 146/186/132 149/189/135 141/175/127 
f 141/175/127 149/189/135 147/187/133 139/172/125 
f 142/178/128 150/190/136 145/185/131 137/168/123 
f 140/180/126 148/191/134 151/192/137 143/181/129 
f 144/184/130 152/193/138 150/190/136 142/178/128 
f 143/181/129 152/193/138 144/184/130 
f 145/185/131 153/194/139 154/195/140 146/186/132 
f 147/187/133 155/196/141 148/188/134 
f 146/186/132 156/197/142 149/189/135 
f 149/189/135 156/197/142 147/187/133 
f 150/190/136 153/194/139 145/185/131 
f 148/191/134 155/198/141 151/192/137 
f 1/1/1 4/4/2 157/199/143 
f 157/199/143 108/124/98 158/200/144 
f 158/200/144 108/124/98 16/16/14 159/201/145 
f 9/9/7 18/18/16 21/21/19 7/7/5 
f 7/7/5 104/119/94 101/114/91 
f 101/114/91 104/119/94 10/10/8 102/115/92 
f 102/115/92 10/10/8 13/13/11 160/202/146 
f 160/202/146 13/13/11 107/122/97 
f 107/122/97 106/121/96 161/203/147 162/204/148 
f 161/203/147 106/121/96 98/111/81 163/205/149 
f 163/205/149 98/111/81 85/97/81 164/206/149 
f 164/206/149 85/97/81 88/100/82 
f 165/207/150 94/106/87 111/129/100 166/208/151 
f 166/208/151 111/129/100 114/133/103 167/209/152 
f 168/210/153 167/211/152 114/139/103 117/138/105 169/212/154 
f 169/212/154 117/138/105 120/143/107 
f 120/143/107 123/146/110 170/213/155 
f 170/214/155 123/151/110 126/150/113 171/215/156 
f 172/216/157 171/215/156 126/150/113 130/158/117 
f 130/158/117 126/150/113 65/74/63 71/83/69 
f 71/83/69 77/89/75 173/217/158 133/162/119 
f 133/162/119 173/217/158 174/218/159 
f 175/219/160 79/91/77 78/90/76 
f 78/90/76 72/84/70 131/160/118 
f 176/220/161 177/221/162 131/160/118 127/155/114 178/222/163 
f 178/222/163 127/155/114 124/154/111 179/223/164 
f 121/144/108 118/141/106 180/224/165 181/225/166 
f 180/224/165 118/141/106 115/140/104 182/226/167 
f 182/227/167 115/135/104 112/131/101 183/228/168 
f 183/228/168 112/131/101 96/109/89 
f 96/109/89 91/103/84 184/229/84 
f 184/229/84 91/103/84 90/102/84 185/230/84 
f 185/230/84 90/102/84 99/112/84 186/231/84 
f 186/231/84 99/112/84 109/125/99 
f 109/125/99 108/124/98 157/199/143 187/232/169 
f 187/232/169 157/199/143 4/4/2 
f 159/201/145 16/16/14 15/15/13 103/116/93 
f 15/15/13 14/14/12 18/127/16 9/123/7 
# 137 polygons - 27 triangles

