# 3ds Max Wavefront OBJ Exporter v0.97b - (c)2007 guruware
# File Created: 26.03.2019 23:52:26

#
# object RoomB_Collider
#

v  3.6966 7.4863 23.6191
v  5.0958 7.7218 19.6260
v  5.0958 -0.2274 19.6260
v  3.6966 -0.4628 23.6191
v  -8.1079 7.6354 19.8948
v  -8.1079 -0.3137 19.8948
v  -8.8031 -0.3082 15.0133
v  -8.8031 7.6409 15.0133
v  9.9367 7.7244 15.7650
v  9.9367 -0.2247 15.7650
v  -11.4633 -0.2155 9.4256
v  -11.4633 7.7336 9.4256
v  16.1139 7.6315 14.3802
v  16.1139 -0.3176 14.3802
v  19.5154 7.4796 13.6753
v  19.5154 -0.4695 13.6753
v  20.3336 7.6195 10.2159
v  20.3336 -0.3296 10.2159
v  19.7120 7.4864 6.9760
v  19.7120 -0.4627 6.9760
v  15.6296 7.7138 5.5090
v  15.6296 -0.2353 5.5090
v  -15.6684 7.7110 3.5983
v  -15.6684 -0.2381 3.5983
v  -18.6496 -0.2587 -1.4870
v  -18.6496 7.6904 -1.4870
v  9.9538 7.5829 1.8247
v  5.8320 7.7919 -0.5538
v  5.8320 -0.1572 -0.5538
v  9.9538 -0.3662 1.8247
v  -19.0328 7.6380 -8.2403
v  -19.0328 -0.3111 -8.2403
v  13.4090 7.6401 -6.5168
v  13.4090 -0.3090 -6.5168
v  8.5631 -0.2172 -5.0417
v  8.5631 7.7319 -5.0417
v  -10.5342 7.6435 -16.2090
v  -14.5042 7.7186 -12.7945
v  -14.5042 -0.2306 -12.7945
v  -10.5342 -0.3056 -16.2090
v  15.5733 7.6354 -13.9520
v  15.5733 -0.3137 -13.9520
v  15.9329 -0.3136 -9.6021
v  15.9329 7.6355 -9.6021
v  13.4004 7.6399 -16.9741
v  9.4337 7.7308 -19.7612
v  9.4337 -0.2183 -19.7612
v  13.4004 -0.3092 -16.9741
v  -4.1103 7.4868 -23.4351
v  -6.1490 7.7221 -19.2203
v  -6.1490 -0.2270 -19.2203
v  -4.1103 -0.4623 -23.4351
v  -4.8896 7.6353 23.3102
v  -4.8896 -0.3138 23.3102
v  4.9083 7.6446 -23.2531
v  4.9083 -0.3046 -23.2531
# 56 vertices

vn -0.6290 0.0000 -0.7774
vn -0.8124 0.0000 -0.5831
vn -0.8184 0.0000 -0.5747
vn -0.6234 0.0000 -0.7819
vn 0.9011 0.0000 -0.4336
vn 0.9010 0.0000 -0.4338
vn 0.9576 0.0000 -0.2880
vn 0.9572 0.0000 -0.2895
vn -0.4331 0.0000 -0.9013
vn -0.4312 0.0000 -0.9022
vn 0.8606 0.0000 -0.5093
vn 0.8602 0.0000 -0.5099
vn -0.2110 0.0000 -0.9775
vn -0.2107 0.0000 -0.9776
vn -0.6966 0.0000 -0.7175
vn -0.6978 0.0000 -0.7163
vn -0.9998 0.0000 -0.0214
vn -0.9998 0.0000 -0.0213
vn -0.7585 0.0000 0.6517
vn -0.7613 0.0000 0.6484
vn -0.4454 0.0000 0.8953
vn -0.4432 0.0000 0.8964
vn 0.8377 0.0000 -0.5462
vn 0.8378 0.0000 -0.5460
vn 0.9575 0.0000 -0.2884
vn 0.9570 0.0000 -0.2901
vn -0.5222 0.0000 0.8529
vn -0.9714 0.0000 0.2373
vn -0.9662 0.0000 0.2578
vn -0.5225 0.0000 0.8526
vn 0.9346 0.0000 0.3557
vn 0.9351 0.0000 0.3544
vn -0.5551 0.0000 -0.8318
vn -0.5582 0.0000 -0.8297
vn -0.6101 0.0000 -0.7923
vn -0.6158 0.0000 -0.7879
vn 0.6100 0.0000 0.7924
vn 0.6811 0.0000 0.7322
vn -0.9383 0.0000 0.3457
vn -0.9384 0.0000 0.3455
vn -0.9549 0.0000 -0.2969
vn -0.9548 0.0000 -0.2972
vn -0.7025 0.0000 0.7117
vn -0.5931 0.0000 0.8052
vn -0.5930 0.0000 0.8052
vn -0.7040 0.0000 0.7102
vn 0.5745 0.0000 0.8185
vn 0.7565 0.0000 0.6540
vn 0.7604 0.0000 0.6495
vn 0.5708 0.0000 0.8211
vn 0.4669 0.0000 -0.8843
vn 0.4666 0.0000 -0.8845
vn -0.3753 0.0000 0.9269
vn -0.3724 0.0000 0.9281
# 54 vertex normals

vt 0.5145 0.2201 0.0000
vt 0.5473 0.2858 0.0000
vt 0.3226 0.3979 0.0000
vt 0.3791 0.4555 0.0000
vt 0.6555 0.2931 0.0000
vt 0.3515 0.5399 0.0000
vt 0.7553 0.2642 0.0000
vt 0.8072 0.2385 0.0000
vt 0.8630 0.2926 0.0000
vt 0.8704 0.3485 0.0000
vt 0.8209 0.3957 0.0000
vt 0.3440 0.6722 0.0000
vt 0.3117 0.7775 0.0000
vt 0.7465 0.4979 0.0000
vt 0.6768 0.5534 0.0000
vt 0.3342 0.8716 0.0000
vt 0.8425 0.5491 0.0000
vt 0.7631 0.5887 0.0000
vt 0.5292 0.8866 0.0000
vt 0.4634 0.9023 0.0000
vt 0.9414 0.6521 0.0000
vt 0.9230 0.5792 0.0000
vt 0.9212 0.7169 0.0000
vt 0.8845 0.7745 0.0000
vt 0.6926 0.9523 0.0000
vt 0.6364 0.8906 0.0000
vt 0.3647 0.2948 0.0000
vt 0.8424 0.8776 0.0000
# 28 texture coords

o RoomB_Collider
g RoomB_Collider
s 1
f 1/1/1 2/2/2 3/2/3 4/1/4 
f 5/3/5 6/3/6 7/4/7 8/4/8 
f 9/5/9 10/5/10 3/2/3 2/2/2 
f 8/4/8 7/4/7 11/6/11 12/6/12 
f 13/7/13 14/7/14 10/5/10 9/5/9 
f 15/8/15 16/8/16 14/7/14 13/7/13 
f 15/8/15 17/9/17 18/9/18 16/8/16 
f 19/10/19 20/10/20 18/9/18 17/9/17 
f 19/10/19 21/11/21 22/11/22 20/10/20 
f 23/12/23 24/12/24 25/13/25 26/13/26 
f 27/14/27 28/15/28 29/15/29 30/14/30 
f 27/14/27 30/14/30 22/11/22 21/11/21 
f 31/16/31 26/13/26 25/13/25 32/16/32 
f 33/17/33 34/17/34 35/18/35 36/18/36 
f 37/19/37 38/20/38 39/20/38 40/19/37 
f 41/21/39 42/21/40 43/22/41 44/22/42 
f 45/23/43 46/24/44 47/24/45 48/23/46 
f 49/25/47 50/26/48 51/26/49 52/25/50 
f 53/27/51 54/27/52 6/3/6 5/3/5 
f 12/6/12 11/6/11 24/12/24 23/12/23 
f 31/16/31 32/16/32 39/20/38 38/20/38 
f 37/19/37 40/19/37 51/26/49 50/26/48 
f 55/28/53 56/28/54 47/24/45 46/24/44 
f 45/23/43 48/23/46 42/21/40 41/21/39 
f 44/22/42 43/22/41 34/17/34 33/17/33 
f 36/18/36 35/18/35 29/15/29 28/15/28 
# 26 polygons

