# 3ds Max Wavefront OBJ Exporter v0.97b - (c)2007 guruware
# File Created: 26.03.2019 23:59:14

#
# object RoomE_Collider
#

v  -8.8108 0.1791 20.0000
v  -8.8108 5.4892 20.0000
v  -4.7658 5.4892 24.0333
v  -4.7658 0.1791 24.0333
v  5.0000 0.1791 23.9020
v  5.0000 5.4892 23.9020
v  8.8526 5.4892 21.2002
v  8.8526 0.1791 21.2002
v  -8.8108 0.1791 15.0000
v  -8.8108 5.4892 15.0000
v  10.0640 5.4892 20.4942
v  10.0640 0.1791 20.4942
v  16.4555 5.4892 17.6763
v  16.4555 0.1791 17.6763
v  -5.0000 0.1791 11.4142
v  -5.0000 5.4892 11.4142
v  -3.9956 0.1791 10.0000
v  -3.9956 5.4892 10.0000
v  17.1660 5.4892 16.5033
v  17.1660 0.1791 16.5033
v  18.9625 5.4892 10.0000
v  18.9625 0.1791 10.0000
v  -24.0523 0.1791 4.6492
v  -24.0523 5.4892 4.6492
v  -18.9191 5.4892 8.3956
v  -18.9191 0.1791 8.3956
v  -4.4001 0.1791 5.0000
v  -4.4001 5.4892 5.0000
v  20.0000 5.4892 8.5858
v  20.0000 0.1791 8.5858
v  23.8108 5.4892 5.0000
v  23.8108 0.1791 5.0000
v  -16.1963 0.1791 5.3754
v  -16.1963 5.4892 5.3754
v  -15.0000 5.4892 4.4702
v  -15.0000 0.1791 4.4702
v  -10.7954 5.4892 5.3843
v  -10.7954 0.1791 5.3843
v  -9.7977 5.4892 -0.0000
v  -9.7977 0.1791 -0.0000
v  -0.5038 0.1791 -1.9018
v  -0.5038 5.4892 -1.9018
v  -9.0183 5.4892 -0.9742
v  -9.0183 0.1791 -0.9742
v  -2.3813 5.4892 -3.1239
v  -2.3813 0.1791 -3.1239
v  -20.2422 0.1791 -8.7435
v  -20.2422 5.4892 -8.7435
v  -24.0642 5.4892 -4.4710
v  -24.0642 0.1791 -4.4710
v  24.0767 0.1791 -4.6099
v  24.0767 5.4892 -4.6099
v  20.0000 5.4892 -5.9616
v  20.0000 0.1791 -5.9616
v  -15.9954 0.1791 -15.4955
v  -15.9954 5.4892 -15.4955
v  -19.1866 5.4892 -10.1027
v  -19.1866 0.1791 -10.1027
v  18.1082 0.1791 -8.1610
v  18.1082 5.4892 -8.1610
v  15.0000 5.4892 -13.0724
v  15.0000 0.1791 -13.0724
v  -10.0841 0.1791 -18.8096
v  -10.0841 5.4892 -18.8096
v  -14.8691 5.4892 -16.5529
v  -14.8691 0.1791 -16.5529
v  -8.6651 0.1791 -19.9310
v  -8.6651 5.4892 -19.9310
v  13.1294 0.1791 -14.9639
v  13.1294 5.4892 -14.9639
v  8.2502 5.4892 -18.1294
v  8.2502 0.1791 -18.1294
v  -5.0000 0.1791 -23.8115
v  -5.0000 5.4892 -23.8115
v  6.1114 0.1791 -20.0000
v  6.1114 5.4892 -20.0000
v  4.5921 5.4892 -24.0220
v  4.5921 0.1791 -24.0220
# 78 vertices

vn 0.9236 0.0000 -0.3834
vn 0.3788 0.0000 -0.9255
vn -0.3104 0.0000 -0.9506
vn -0.5393 0.0000 -0.8421
vn 0.9180 0.0000 0.3967
vn -0.4542 0.0000 -0.8909
vn -0.6599 0.0000 -0.7513
vn 0.7540 0.0000 0.6569
vn 0.9642 0.0000 0.2652
vn -0.9183 0.0000 -0.3959
vn -0.8999 0.0000 -0.4361
vn 0.8940 0.0000 -0.4480
vn -0.1031 0.0000 -0.9947
vn 0.9766 0.0000 0.2149
vn -0.7489 0.0000 -0.6627
vn -0.9103 0.0000 -0.4140
vn -0.6761 0.0000 -0.7368
vn -0.2152 0.0000 -0.9766
vn -0.5538 0.0000 -0.8327
vn -0.9094 0.0000 -0.4160
vn 0.9714 0.0000 -0.2376
vn -0.5684 0.0000 -0.8227
vn 0.1315 0.0000 -0.9913
vn 0.7680 0.0000 0.6404
vn 0.9367 0.0000 0.3501
vn -0.8156 0.0000 0.5786
vn -0.5566 0.0000 0.8308
vn 0.7803 0.0000 0.6254
vn 0.8268 0.0000 0.5624
vn -0.8037 0.0000 0.5950
vn -0.7826 0.0000 0.6226
vn 0.5267 0.0000 0.8500
vn 0.5624 0.0000 0.8269
vn 0.6753 0.0000 0.7375
vn -0.6313 0.0000 0.7755
vn -0.6028 0.0000 0.7979
vn 0.4131 0.0000 0.9107
vn -0.8215 0.0000 0.5702
vn -0.5666 0.0000 0.8240
# 39 vertex normals

vt 0.3673 0.3320 0.0000
vt 0.4113 0.2561 0.0000
vt 0.5566 0.2192 0.0000
vt 0.6245 0.2440 0.0000
vt 0.3872 0.4061 0.0000
vt 0.6452 0.2496 0.0000
vt 0.7512 0.2660 0.0000
vt 0.4579 0.4441 0.0000
vt 0.4784 0.4611 0.0000
vt 0.7664 0.2806 0.0000
vt 0.8189 0.3699 0.0000
vt 0.2023 0.6201 0.0000
vt 0.2635 0.5442 0.0000
vt 0.4923 0.5369 0.0000
vt 0.8399 0.3867 0.0000
vt 0.9106 0.4248 0.0000
vt 0.3159 0.5782 0.0000
vt 0.3372 0.5868 0.0000
vt 0.3959 0.5566 0.0000
vt 0.4321 0.6325 0.0000
vt 0.5775 0.6237 0.0000
vt 0.4476 0.6438 0.0000
vt 0.5545 0.6493 0.0000
vt 0.3120 0.8036 0.0000
vt 0.2383 0.7554 0.0000
vt 0.9528 0.5662 0.0000
vt 0.8977 0.6025 0.0000
vt 0.4018 0.8869 0.0000
vt 0.3330 0.8196 0.0000
vt 0.8784 0.6426 0.0000
vt 0.8518 0.7278 0.0000
vt 0.5026 0.9125 0.0000
vt 0.4227 0.8981 0.0000
vt 0.5281 0.9235 0.0000
vt 0.8316 0.7632 0.0000
vt 0.7718 0.8296 0.0000
vt 0.5979 0.9665 0.0000
vt 0.7475 0.8658 0.0000
vt 0.7410 0.9315 0.0000
# 39 texture coords

o RoomE_Collider
g RoomE_Collider
s off
f 1/1/1 2/1/1 3/2/2 4/2/2 
f 5/3/3 6/3/3 7/4/4 8/4/4 
f 9/5/5 10/5/5 2/1/1 1/1/1 
f 8/4/4 7/4/4 11/6/6 12/6/6 
f 12/6/6 11/6/6 13/7/7 14/7/7 
f 15/8/8 16/8/8 10/5/5 9/5/5 
f 17/9/9 18/9/9 16/8/8 15/8/8 
f 14/7/7 13/7/7 19/10/10 20/10/10 
f 20/10/10 19/10/10 21/11/11 22/11/11 
f 23/12/12 24/12/12 25/13/13 26/13/13 
f 27/14/14 28/14/14 18/9/9 17/9/9 
f 22/11/11 21/11/11 29/15/15 30/15/15 
f 30/15/15 29/15/15 31/16/16 32/16/16 
f 33/17/17 34/17/17 35/18/18 36/18/18 
f 36/18/18 35/18/18 37/19/19 38/19/19 
f 38/19/19 37/19/19 39/20/20 40/20/20 
f 41/21/21 42/21/21 28/14/14 27/14/14 
f 40/20/20 39/20/20 43/22/22 44/22/22 
f 44/22/22 43/22/22 45/23/23 46/23/23 
f 46/23/23 45/23/23 42/21/21 41/21/21 
f 47/24/24 48/24/24 49/25/25 50/25/25 
f 51/26/26 52/26/26 53/27/27 54/27/27 
f 55/28/28 56/28/28 57/29/29 58/29/29 
f 59/30/30 60/30/30 61/31/31 62/31/31 
f 63/32/32 64/32/32 65/33/33 66/33/33 
f 67/34/34 68/34/34 64/32/32 63/32/32 
f 69/35/35 70/35/35 71/36/36 72/36/36 
f 73/37/37 74/37/37 68/34/34 67/34/34 
f 75/38/38 76/38/38 77/39/39 78/39/39 
f 26/13/13 25/13/13 34/17/17 33/17/17 
f 54/27/27 53/27/27 60/30/30 59/30/30 
f 62/31/31 61/31/31 70/35/35 69/35/35 
f 72/36/36 71/36/36 76/38/38 75/38/38 
f 66/33/33 65/33/33 56/28/28 55/28/28 
f 58/29/29 57/29/29 48/24/24 47/24/24 
# 35 polygons

